<?xml version="1.0" encoding="UTF-8" standalone="no"?>
<svg
   xmlns:dc="http://purl.org/dc/elements/1.1/"
   xmlns:cc="http://creativecommons.org/ns#"
   xmlns:rdf="http://www.w3.org/1999/02/22-rdf-syntax-ns#"
   xmlns:svg="http://www.w3.org/2000/svg"
   xmlns="http://www.w3.org/2000/svg"
   viewBox="0 0 1122.5143 793.64575"
   height="793.64575"
   width="1122.5143"
   xml:space="preserve"
   id="svg2"
   version="1.1"><metadata
     id="metadata8"><rdf:RDF><cc:Work
         rdf:about=""><dc:format>image/svg+xml</dc:format><dc:type
           rdf:resource="http://purl.org/dc/dcmitype/StillImage" /></cc:Work></rdf:RDF></metadata><defs
     id="defs6"><clipPath
       id="clipPath20"
       clipPathUnits="userSpaceOnUse"><path
         id="path18"
         d="M 0,0 V 595.23431 H 841.88574 V 0 Z" /></clipPath></defs><g
     transform="matrix(1.3333333,0,0,-1.3333333,0,793.64575)"
     id="g10"><g
       transform="matrix(1,0,0,-1,0,595.23431)"
       id="g12"><g
         id="g14"><g
           clip-path="url(#clipPath20)"
           id="g16"><path
             id="path22"
             style="fill:none;stroke:#a8a8a8;stroke-width:1.02857149;stroke-linecap:round;stroke-linejoin:round;stroke-miterlimit:10;stroke-dasharray:none;stroke-opacity:1"
             d="m 274.87704,121.39278 h -8.71218" /><path
             id="path24"
             style="fill:none;stroke:#a8a8a8;stroke-width:1.02857149;stroke-linecap:round;stroke-linejoin:round;stroke-miterlimit:10;stroke-dasharray:none;stroke-opacity:1"
             d="M 278.02557,150.37402 266.16486,121.39278" /><path
             id="path26"
             style="fill:#dadada;fill-opacity:1;fill-rule:nonzero;stroke:none"
             d="m 39.380413,516.2774 c -1.716751,-49.52484 6.862335,-101.52691 25.466671,-149.65347 18.60434,-48.12659 47.233926,-92.37768 81.816036,-127.87048 34.37661,-35.69187 77.69616,-65.71234 125.20764,-85.83573 47.51144,-20.12338 99.21481,-30.34963 148.76922,-30.20658 49.55442,-0.14305 101.25779,10.0832 148.7692,30.20658 47.51147,20.12339 90.83105,50.14386 125.20764,85.83573 34.58209,35.4928 63.21173,79.74389 81.81604,127.87048 18.60431,48.12656 27.18341,100.12863 25.46668,149.65347 z" /><path
             id="path28"
             style="fill:none;stroke:#007f00;stroke-width:1.02857149;stroke-linecap:round;stroke-linejoin:round;stroke-miterlimit:10;stroke-dasharray:none;stroke-opacity:1"
             d="m 665.52698,223.41513 9.23376,28.7361 -29.48449,-11.63548" /><path
             id="path30"
             style="fill:none;stroke:#007f00;stroke-width:1.02857149;stroke-linecap:round;stroke-linejoin:round;stroke-miterlimit:10;stroke-dasharray:none;stroke-opacity:1"
             d="m 294.57321,172.26735 c 26.56574,-12.39409 55.90305,-20.7238 85.80042,-24.1126 29.89737,-3.38879 60.35479,-1.83665 89.0206,4.29708" /><path
             id="path32"
             style="fill:none;stroke:#007f00;stroke-width:1.02857149;stroke-linecap:round;stroke-linejoin:round;stroke-miterlimit:10;stroke-dasharray:none;stroke-opacity:1"
             d="m 512.07806,160.815 c 29.1601,5.22034 58.23767,15.3582 84.94275,29.86383 26.70514,14.50565 51.03772,33.37905 71.29016,54.99854" /><path
             id="path34"
             style="fill:none;stroke:#007f00;stroke-width:1.02857149;stroke-linecap:round;stroke-linejoin:round;stroke-miterlimit:10;stroke-dasharray:none;stroke-opacity:1"
             d="m 266.46368,85.982864 2.91611,-6.43972 13.48697,-11.785927 h 239.14423 l 5.46447,-10.56266 4.8888,10.580254 h 258.33551 l 5.73559,5.895729 3.34821,5.420906 3.26849,7.573288" /><path
             id="path36"
             style="fill:none;stroke:#0000ff;stroke-width:1.02857149;stroke-linecap:round;stroke-linejoin:round;stroke-miterlimit:10;stroke-dasharray:none;stroke-opacity:1"
             d="m 39.380413,516.2774 c -1.716751,-49.52484 6.862335,-101.52691 25.466671,-149.65347 18.60434,-48.12659 47.233926,-92.37768 81.816036,-127.87048 34.37661,-35.69187 77.69616,-65.71234 125.20764,-85.83573 47.51144,-20.12338 99.21481,-30.34963 148.76922,-30.20658 49.55442,-0.14305 101.25779,10.0832 148.7692,30.20658 47.51147,20.12339 90.83105,50.14386 125.20764,85.83573 34.58209,35.4928 63.21173,79.74389 81.81604,127.87048 18.60431,48.12656 27.18341,100.12863 25.46668,149.65347" /><text
             id="text40"
             style="font-variant:normal;font-weight:normal;font-size:19.14063263px;font-family:ArialMT;-inkscape-font-specification:ArialMT;writing-mode:lr-tb;fill:#c80000;fill-opacity:1;fill-rule:nonzero;stroke:none"
             transform="translate(395.2248,506.81769)"><tspan
               id="tspan38"
               y="0"
               x="0">O</tspan></text>
<text
             id="text44"
             style="font-variant:normal;font-weight:normal;font-size:19.14063263px;font-family:ArialMT;-inkscape-font-specification:ArialMT;writing-mode:lr-tb;fill:#c80000;fill-opacity:1;fill-rule:nonzero;stroke:none"
             transform="rotate(-0.92211569,7746.9072,-15266.306)"><tspan
               id="tspan42"
               y="0"
               x="0">A</tspan></text>
<text
             id="text48"
             style="font-variant:normal;font-weight:normal;font-size:19.14063263px;font-family:ArialMT;-inkscape-font-specification:ArialMT;writing-mode:lr-tb;fill:#c80000;fill-opacity:1;fill-rule:nonzero;stroke:none"
             transform="rotate(-0.92211569,7798.9591,-50333.253)"><tspan
               id="tspan46"
               y="0"
               x="0">C</tspan></text>
<text
             id="text52"
             style="font-variant:normal;font-weight:normal;font-size:19.14063263px;font-family:ArialMT;-inkscape-font-specification:ArialMT;writing-mode:lr-tb;fill:#c80000;fill-opacity:1;fill-rule:nonzero;stroke:none"
             transform="rotate(-0.92211569,15389.765,-43565.988)"><tspan
               id="tspan50"
               y="0"
               x="0">X</tspan></text>
<text
             id="text56"
             style="font-variant:normal;font-weight:normal;font-size:19.14063263px;font-family:ArialMT;-inkscape-font-specification:ArialMT;writing-mode:lr-tb;fill:#c80000;fill-opacity:1;fill-rule:nonzero;stroke:none"
             transform="rotate(-0.92211569,7298.5748,-25823.784)"><tspan
               id="tspan54"
               y="0"
               x="0">B</tspan></text>
<path
             id="path58"
             style="fill:#000000;fill-opacity:1;fill-rule:nonzero;stroke:none"
             d="m 270.44101,124.7739 c 0.1676,1.65336 -1.70667,3.52764 -3.36005,3.36003 -1.65335,0.16761 -3.52762,-1.70667 -3.36001,-3.36003 -0.16761,-1.65336 1.70666,-3.52764 3.36001,-3.36002 1.65338,-0.16762 3.52765,1.70666 3.36005,3.36002 z" /><path
             id="path60"
             style="fill:#000000;fill-opacity:1;fill-rule:nonzero;stroke:none"
             d="m 264.30164,136.94383 2.77963,-7.68687 3.19144,-1.54424 7.92709,3.01984 -0.61771,1.4756 -6.65738,-2.36783 3.2789,7.86327 8.96668,10.25468 -1.93076,1.02571 -8.08426,-9.56938 0.99518,12.04506 -1.99035,0.75496 -0.78928,-12.7657 -3.39731,-8.30458 -2.43646,6.17695 z" /><path
             id="path62"
             style="fill:none;stroke:#000000;stroke-width:1.02857149;stroke-linecap:round;stroke-linejoin:round;stroke-miterlimit:10;stroke-dasharray:none;stroke-opacity:1"
             d="M 422.57535,503.57632 V 122.71116" /><path
             id="path64"
             style="fill:none;stroke:#000000;stroke-width:1.02857149;stroke-linecap:round;stroke-linejoin:round;stroke-miterlimit:10;stroke-dasharray:none;stroke-opacity:1"
             d="M 805.91461,121.39278 H 274.87708" /><path
             id="path66"
             style="fill:none;stroke:#000000;stroke-width:1.02857149;stroke-linecap:round;stroke-linejoin:round;stroke-miterlimit:10;stroke-dasharray:none;stroke-opacity:1"
             d="m 270.44101,124.7739 c 0.1676,-1.65336 -1.70667,-3.52764 -3.36005,-3.36002 -1.65335,-0.16762 -3.52762,1.70666 -3.36001,3.36002 -0.16761,1.65336 1.70666,3.52764 3.36001,3.36003 1.65338,0.16761 3.52765,-1.70667 3.36005,-3.36003 z" /><path
             id="path68"
             style="fill:none;stroke:#000000;stroke-width:1.02857149;stroke-linecap:round;stroke-linejoin:round;stroke-miterlimit:10;stroke-dasharray:none;stroke-opacity:1"
             d="m 264.30167,136.94383 2.7796,-7.68687 3.19144,-1.54424 7.92709,3.01984 -0.61771,1.47562 -6.65738,-2.36783 3.27893,7.86326 8.96665,10.25469 -1.93073,1.02569 -8.08429,-9.56938 0.99518,12.04506 -1.99032,0.75496 -0.78928,-12.76569 -3.39734,-8.30458 -2.43646,6.17696 z" /><path
             id="path70"
             style="fill:none;stroke:#000000;stroke-width:1.02857149;stroke-linecap:round;stroke-linejoin:round;stroke-miterlimit:10;stroke-dasharray:none;stroke-opacity:1"
             d="M 422.57535,503.57632 805.91461,121.3928" /><path
             id="path72"
             style="fill:none;stroke:#000000;stroke-width:1.02857149;stroke-linecap:round;stroke-linejoin:round;stroke-miterlimit:10;stroke-dasharray:none;stroke-opacity:1"
             d="M 422.57535,503.57632 278.02557,150.37402" /><text
             id="text76"
             style="font-variant:normal;font-weight:normal;font-size:19.14063263px;font-family:ArialMT;-inkscape-font-specification:ArialMT;writing-mode:lr-tb;fill:#000000;fill-opacity:1;fill-rule:nonzero;stroke:none"
             transform="translate(748.7804,195.41828)"><tspan
               id="tspan74"
               y="0"
               x="0 10.642192">h2</tspan></text>
<text
             id="text80"
             style="font-variant:normal;font-weight:normal;font-size:19.14063263px;font-family:ArialMT;-inkscape-font-specification:ArialMT;writing-mode:lr-tb;fill:#000000;fill-opacity:1;fill-rule:nonzero;stroke:none"
             transform="translate(558.63976,342.83997)"><tspan
               id="tspan78"
               y="0"
               x="0">R</tspan></text>
<text
             id="text84"
             style="font-variant:normal;font-weight:normal;font-size:19.14063263px;font-family:ArialMT;-inkscape-font-specification:ArialMT;writing-mode:lr-tb;fill:#000000;fill-opacity:1;fill-rule:nonzero;stroke:none"
             transform="translate(404.01807,305.60937)"><tspan
               id="tspan82"
               y="0"
               x="0">R</tspan></text>
<text
             id="text88"
             style="font-variant:normal;font-weight:normal;font-size:19.14063263px;font-family:ArialMT;-inkscape-font-specification:ArialMT;writing-mode:lr-tb;fill:#000000;fill-opacity:1;fill-rule:nonzero;stroke:none"
             transform="translate(610.42567,115.4217)"><tspan
               id="tspan86"
               y="0"
               x="0 10.642192">d2</tspan></text>
<text
             id="text92"
             style="font-variant:normal;font-weight:normal;font-size:19.14063263px;font-family:ArialMT;-inkscape-font-specification:ArialMT;writing-mode:lr-tb;fill:#000000;fill-opacity:1;fill-rule:nonzero;stroke:none"
             transform="translate(327.44049,340.02625)"><tspan
               id="tspan90"
               y="0"
               x="0">R</tspan></text>
<text
             id="text96"
             style="font-variant:normal;font-weight:normal;font-size:19.14063263px;font-family:ArialMT;-inkscape-font-specification:ArialMT;writing-mode:lr-tb;fill:#000000;fill-opacity:1;fill-rule:nonzero;stroke:none"
             transform="translate(335.18952,115.4217)"><tspan
               id="tspan94"
               y="0"
               x="0 10.642192">d1</tspan></text>
<text
             id="text100"
             style="font-variant:normal;font-weight:normal;font-size:19.14063263px;font-family:ArialMT;-inkscape-font-specification:ArialMT;writing-mode:lr-tb;fill:#000000;fill-opacity:1;fill-rule:nonzero;stroke:none"
             transform="translate(519.44393,50.506448)"><tspan
               id="tspan98"
               y="0"
               x="0 10.642192">d0</tspan></text>
<text
             id="text104"
             style="font-variant:normal;font-weight:normal;font-size:19.14063263px;font-family:ArialMT;-inkscape-font-specification:ArialMT;writing-mode:lr-tb;fill:#000000;fill-opacity:1;fill-rule:nonzero;stroke:none"
             transform="translate(239.68539,148.12719)"><tspan
               id="tspan102"
               y="0"
               x="0 10.642192">h1</tspan></text>
<text
             id="text108"
             style="font-variant:normal;font-weight:normal;font-size:19.14063263px;font-family:ArialMT;-inkscape-font-specification:ArialMT;writing-mode:lr-tb;fill:#000000;fill-opacity:1;fill-rule:nonzero;stroke:none"
             transform="rotate(-13.556223,803.14194,-1397.423)"><tspan
               id="tspan106"
               y="0"
               x="0 10.642192">L1</tspan></text>
<text
             id="text112"
             style="font-variant:normal;font-weight:normal;font-size:19.14063263px;font-family:ArialMT;-inkscape-font-specification:ArialMT;writing-mode:lr-tb;fill:#000000;fill-opacity:1;fill-rule:nonzero;stroke:none"
             transform="rotate(27.527269,-76.410331,1280.2399)"><tspan
               id="tspan110"
               y="0"
               x="0 10.642192">L2</tspan></text>
<text
             id="text116"
             style="font-variant:normal;font-weight:normal;font-size:19.14063263px;font-family:ArialMT;-inkscape-font-specification:ArialMT;writing-mode:lr-tb;fill:#000000;fill-opacity:1;fill-rule:nonzero;stroke:none"
             transform="rotate(14.988687,-374.32648,1902.6254)"><tspan
               id="tspan114"
               y="0"
               x="0 10.642192">L0</tspan></text>
</g></g></g></g></svg>