<svg width="3713" height="2475" xmlns="http://www.w3.org/2000/svg" xmlns:xlink="http://www.w3.org/1999/xlink" xml:space="preserve" overflow="hidden">
  <g transform="translate(-385 0)">
    <rect x="385" y="0" width="3713" height="2475" fill="#FFFFFF" />
    <path d="M2186 519C3082.91 519 3810 1246.09 3810 2143L562 2143C562 1246.09 1289.09 519 2186 519Z" fill="#E2E2E2" fill-rule="evenodd" />
    <path d="M570.944 2310.5C570.924 2310.34 570.904 2310.19 570.884 2310.03 565.34 2255.42 562.5 2200.01 562.5 2143.94 562.5 1246.79 1289.59 519.5 2186.5 519.5 3083.41 519.5 3810.5 1246.79 3810.5 2143.94 3810.5 2200.01 3807.66 2255.42 3802.12 2310.03" stroke="#000000" stroke-width="4.58333" stroke-miterlimit="8" fill="none" fill-rule="evenodd" />
    <path d="M0 0 1677.5 1622.5" stroke="#000000" stroke-width="6.875" stroke-miterlimit="8" fill="none" fill-rule="evenodd" transform="matrix(1 0 0 -1 2184.5 2146)" />
    <path d="M0 0 0.000360892 1624.02" stroke="#000000" stroke-width="6.875" stroke-miterlimit="8" fill="none" fill-rule="evenodd" transform="matrix(1 0 0 -1 2186.5 2143.52)" />
    <path d="M0 0 2312.6 0.000360892" stroke="#000000" stroke-width="6.875" stroke-miterlimit="8" fill="none" fill-rule="evenodd" transform="matrix(-1 0 0 1 3865.1 519.5)" />
    <path d="M2181.76 2146.64 1546.78 550.074 1553.17 547.533 2188.15 2144.1ZM1538.89 558.135 1541.5 527.5 1564.44 547.972Z" />
    <path d="M1517 517.5C1517 510.044 1523.27 504 1531 504 1538.73 504 1545 510.044 1545 517.5 1545 524.956 1538.73 531 1531 531 1523.27 531 1517 524.956 1517 517.5Z" fill-rule="evenodd" />
    <text fill="#FF0000" font-family="Calibri,Calibri_MSFontService,sans-serif" font-weight="700" font-size="110" transform="matrix(1 0 0 1 1429.64 516)">A</text>
    <text fill="#FF0000" font-family="Calibri,Calibri_MSFontService,sans-serif" font-weight="700" font-size="110" transform="matrix(1 0 0 1 2156.75 461)">B</text>
    <text fill="#FF0000" font-family="Calibri,Calibri_MSFontService,sans-serif" font-weight="700" font-size="110" transform="matrix(1 0 0 1 3861.75 516)">C</text>
    <text fill="#FF0000" font-family="Calibri,Calibri_MSFontService,sans-serif" font-weight="700" font-size="110" transform="matrix(1 0 0 1 3449.25 1066)">X</text>
    <text fill="#FF0000" font-family="Calibri,Calibri_MSFontService,sans-serif" font-weight="700" font-size="110" transform="matrix(1 0 0 1 2101.75 2221)">O</text>
    <text font-family="Calibri,Calibri_MSFontService,sans-serif" font-weight="700" font-size="110" transform="matrix(1 0 0 1 1744.25 1368)">R</text>
    <text font-family="Calibri,Calibri_MSFontService,sans-serif" font-weight="700" font-size="110" transform="matrix(1 0 0 1 2101.75 1203)">R</text>
    <text font-family="Calibri,Calibri_MSFontService,sans-serif" font-weight="700" font-size="110" transform="matrix(1 0 0 1 2789.25 1451)">R</text>
    <text font-family="Calibri,Calibri_MSFontService,sans-serif" font-weight="700" font-size="110" transform="matrix(1 0 0 1 2899.25 461)">d2</text>
    <text font-family="Calibri,Calibri_MSFontService,sans-serif" font-weight="700" font-size="110" transform="matrix(1 0 0 1 1771.75 461)">d1</text>
    <path d="M1524 399C1524 334.438 1560.29 282.1 1605.05 282.1L2611.95 282.1C2656.71 282.1 2693 229.762 2693 165.2 2693 229.762 2729.29 282.1 2774.05 282.1L3780.95 282.1C3825.71 282.1 3862 334.438 3862 399" stroke="#00B050" stroke-width="10.3125" stroke-miterlimit="8" fill="none" fill-rule="evenodd" />
    <text fill="#FF0000" font-family="Calibri,Calibri_MSFontService,sans-serif" font-weight="700" font-size="110" transform="matrix(1 0 0 1 754.246 1891)">Warning</text>
    <text fill="#FF0000" font-family="Calibri,Calibri_MSFontService,sans-serif" font-weight="700" font-size="110" transform="matrix(1 0 0 1 1140.44 1891)">:</text>
    <text fill="#FF0000" font-family="Calibri,Calibri_MSFontService,sans-serif" font-weight="700" font-size="110" transform="matrix(1 0 0 1 754.246 2023)">Not </text>
    <text fill="#FF0000" font-family="Calibri,Calibri_MSFontService,sans-serif" font-weight="700" font-size="110" transform="matrix(1 0 0 1 948.465 2023)">to</text>
    <text fill="#FF0000" font-family="Calibri,Calibri_MSFontService,sans-serif" font-weight="700" font-size="110" transform="matrix(1 0 0 1 1069.42 2023)">Scale</text>
    <text fill="#FF0000" font-family="Calibri,Calibri_MSFontService,sans-serif" font-weight="700" font-size="110" transform="matrix(1 0 0 1 1303.67 2023)">!</text>
    <path d="M1661.7 776.101 1687.31 766.94 1713.06 758.245 1738.9 750.031 1764.82 742.297 1790.81 735.042 1816.87 728.265 1842.99 721.963 1869.16 716.137 1895.39 710.784 1921.66 705.904 1947.97 701.494 1974.31 697.555 2000.68 694.084 2027.07 691.081 2053.47 688.544 2079.88 686.471 2106.29 684.863 2132.7 683.716 2159.1 683.031 2185.48 682.805 2211.84 683.038 2238.17 683.728 2264.47 684.875 2290.73 686.476 2316.94 688.53 2343.11 691.037 2369.21 693.995 2395.25 697.402 2421.22 701.258 2447.12 705.561 2472.93 710.31 2498.66 715.504 2524.29 721.141 2549.82 727.22 2575.25 733.74 2600.57 740.7 2625.77 748.098 2650.84 755.934 2675.79 764.205 2700.6 772.91 2725.27 782.049 2749.79 791.62 2774.16 801.622 2798.37 812.054 2822.42 822.913 2846.29 834.2 2869.99 845.913 2893.5 858.05 2916.82 870.61 2939.95 883.592 2962.88 896.995 2985.6 910.818 3008.11 925.058 3030.4 939.716 3052.46 954.789 3074.29 970.277 3095.89 986.177 3117.24 1002.49 3138.34 1019.21 3159.19 1036.35 3179.78 1053.89 3200.11 1071.84 3205.9 1077.21 3198.89 1084.78 3193.14 1079.45 3193.24 1079.53 3172.98 1061.65 3173.05 1061.71 3152.54 1044.23 3152.61 1044.28 3131.83 1027.21 3131.9 1027.27 3110.87 1010.6 3110.94 1010.66 3089.66 994.4 3089.74 994.455 3068.21 978.608 3068.29 978.661 3046.53 963.226 3046.6 963.278 3024.62 948.256 3024.69 948.307 3002.48 933.699 3002.56 933.749 2980.12 919.557 2980.2 919.604 2957.56 905.829 2957.64 905.875 2934.79 892.518 2934.87 892.563 2911.82 879.625 2911.89 879.668 2888.65 867.151 2888.73 867.193 2865.3 855.097 2865.38 855.138 2841.76 843.465 2841.84 843.504 2818.05 832.256 2818.13 832.293 2794.17 821.47 2794.25 821.507 2770.12 811.111 2770.21 811.145 2745.92 801.178 2746 801.211 2721.56 791.672 2721.65 791.704 2697.06 782.596 2697.15 782.626 2672.42 773.95 2672.5 773.979 2647.64 765.736 2647.73 765.763 2622.74 757.955 2622.82 757.981 2597.71 750.608 2597.79 750.632 2572.56 743.696 2572.65 743.719 2547.31 737.221 2547.39 737.242 2521.95 731.183 2522.03 731.203 2496.49 725.585 2496.57 725.604 2470.93 720.428 2471.02 720.444 2445.3 715.712 2445.38 715.727 2419.58 711.438 2419.66 711.452 2393.78 707.609 2393.87 707.622 2367.92 704.226 2368.01 704.237 2341.99 701.289 2342.08 701.298 2316 698.8 2316.09 698.808 2289.97 696.76 2290.06 696.766 2263.89 695.171 2263.98 695.176 2237.77 694.033 2237.86 694.036 2211.61 693.348 2211.7 693.35 2185.43 693.118 2185.52 693.118 2159.23 693.343 2159.32 693.341 2133.01 694.024 2133.1 694.021 2106.78 695.164 2106.87 695.159 2080.55 696.762 2080.64 696.756 2054.32 698.821 2054.41 698.813 2028.1 701.342 2028.19 701.332 2001.89 704.326 2001.98 704.315 1975.7 707.773 1975.79 707.761 1949.54 711.687 1949.63 711.673 1923.41 716.067 1923.5 716.051 1897.32 720.915 1897.41 720.897 1871.27 726.232 1871.36 726.213 1845.27 732.02 1845.36 731.999 1819.33 738.279 1819.42 738.257 1793.45 745.011 1793.54 744.987 1767.63 752.218 1767.72 752.192 1741.89 759.9 1741.98 759.873 1716.23 768.059 1716.32 768.03 1690.65 776.695 1690.74 776.665 1665.17 785.811ZM3216.21 1058.63 3236.33 1112.65 3181.04 1096.33Z" fill="#00B050" />
    <text font-family="Calibri,Calibri_MSFontService,sans-serif" font-weight="700" font-size="110" transform="matrix(1 0 0 1 1210 406)">d2</text>
    <rect x="2283" y="633" width="165" height="133" fill="#E2E2E2" />
    <text font-family="Calibri,Calibri_MSFontService,sans-serif" font-weight="700" font-size="110" transform="matrix(1 0 0 1 2314.01 736)">L0</text>
    <text font-family="Calibri,Calibri_MSFontService,sans-serif" font-weight="700" font-size="110" transform="matrix(1 0 0 1 1842.5 653)">L1</text>
    <text font-family="Calibri,Calibri_MSFontService,sans-serif" font-weight="700" font-size="110" transform="matrix(1 0 0 1 2750 763)">L2</text>
  </g>
</svg>