<?xml version="1.0" encoding="UTF-8" standalone="no"?>
<svg
   width="3713"
   height="2475"
   xml:space="preserve"
   overflow="hidden"
   version="1.1"
   id="svg26"
   sodipodi:docname="BTH_1.svg"
   inkscape:version="1.4 (86a8ad7, 2024-10-11)"
   inkscape:export-filename="BTH1.png"
   inkscape:export-xdpi="96"
   inkscape:export-ydpi="96"
   xmlns:inkscape="http://www.inkscape.org/namespaces/inkscape"
   xmlns:sodipodi="http://sodipodi.sourceforge.net/DTD/sodipodi-0.dtd"
   xmlns="http://www.w3.org/2000/svg"
   xmlns:svg="http://www.w3.org/2000/svg"><defs
     id="defs26"><rect
       x="21.117747"
       y="156.27133"
       width="135.15358"
       height="422.35494"
       id="rect3" /><rect
       x="126.70648"
       y="80.247439"
       width="975.63992"
       height="97.141637"
       id="rect2" /></defs><sodipodi:namedview
     id="namedview26"
     pagecolor="#ffffff"
     bordercolor="#000000"
     borderopacity="0.25"
     inkscape:showpageshadow="2"
     inkscape:pageopacity="0.0"
     inkscape:pagecheckerboard="0"
     inkscape:deskcolor="#d1d1d1"
     inkscape:zoom="0.15"
     inkscape:cx="2000"
     inkscape:cy="1486.6667"
     inkscape:window-width="1440"
     inkscape:window-height="830"
     inkscape:window-x="-6"
     inkscape:window-y="-6"
     inkscape:window-maximized="1"
     inkscape:current-layer="svg26"
     showgrid="false" /><rect
     x="-1.6666666"
     y="5.8333321"
     width="3713"
     height="2475"
     fill="#ffffff"
     id="rect1" /><g
     transform="matrix(0.01375616,-0.00483154,-0.00442111,-0.00860894,1163.7409,644.88776)"
     fill="#000000"
     stroke="none"
     id="g2"
     inkscape:transform-center-x="-30.467836"
     inkscape:transform-center-y="-20.763647"><path
       d="m 2901,12789 c -438,-49 -792,-208 -1056,-473 -199,-200 -316,-406 -384,-676 -147,-583 61,-1183 532,-1534 263,-196 587,-300 977,-313 746,-26 1361,289 1659,847 60,114 124,299 147,430 26,143 24,374 -4,518 -126,637 -633,1082 -1354,1187 -130,19 -407,27 -517,14 z"
       id="path1-2" /><path
       d="M 1207,8243 -1,6986 247,6738 c 136,-136 250,-248 254,-248 3,0 433,455 955,1010 l 949,1010 7,-387 c 4,-214 11,-980 16,-1703 l 8,-1315 -729,-2255 C 1306,1610 936,465 885,305 833,146 793,13 796,10 806,0 1824,6 1855,16 c 35,12 -8,-145 356,1279 519,2030 848,3295 897,3450 12,37 22,54 25,45 4,-8 116,-409 251,-890 291,-1041 743,-2656 940,-3360 l 141,-505 514,-3 c 486,-2 513,-1 508,15 -2,10 -190,585 -417,1278 -226,693 -595,1823 -819,2510 l -407,1250 8,1265 c 4,696 11,1467 16,1713 l 7,448 973,-986 c 535,-542 976,-985 980,-985 4,0 135,107 290,237 l 284,236 -1244,1244 -1243,1243 h -750 -750 z"
       id="path2-4" /></g><path
     d="m 1801,519 c 896.91,0 1624,727.09 1624,1624 H 177 C 177,1246.09 904.09,519 1801,519 Z"
     fill="#e2e2e2"
     fill-rule="evenodd"
     id="path1" /><path
     d="m 185.944,2310.5 c -0.02,-0.16 -0.04,-0.31 -0.06,-0.47 -5.544,-54.61 -8.384,-110.02 -8.384,-166.09 0,-897.15 727.09,-1624.44 1624,-1624.44 896.91,0 1624,727.29 1624,1624.44 0,56.07 -2.84,111.48 -8.38,166.09"
     stroke="#000000"
     stroke-width="4.58333"
     stroke-miterlimit="8"
     fill="none"
     fill-rule="evenodd"
     id="path2" /><path
     d="M 1799.5,2146 3477,523.5"
     stroke="#000000"
     stroke-width="6.875"
     stroke-miterlimit="8"
     fill="none"
     fill-rule="evenodd"
     id="path3" /><path
     d="m 1801.5,2143.52 4e-4,-1624.02"
     stroke="#000000"
     stroke-width="6.875"
     stroke-miterlimit="8"
     fill="none"
     fill-rule="evenodd"
     id="path4" /><path
     d="m 3480.1,519.5 -2312.6,3.6e-4"
     stroke="#000000"
     stroke-width="6.875"
     stroke-miterlimit="8"
     fill="none"
     fill-rule="evenodd"
     id="path5" /><path
     d="M 1797.2172,2146.64 1207.6745,657.31412 1213.6072,654.9438 1803.15,2144.2706 Z M 1200.349,664.83367 l 2.4233,-28.57727 21.2985,19.09691 z"
     id="path6"
     style="stroke-width:0.930634" /><text
     fill="#ff0000"
     font-family="Calibri, Calibri_MSFontService, sans-serif"
     font-weight="700"
     font-size="110px"
     id="text7"
     x="1044.64"
     y="516">A</text><text
     fill="#ff0000"
     font-family="Calibri, Calibri_MSFontService, sans-serif"
     font-weight="700"
     font-size="110px"
     id="text8"
     x="1771.75"
     y="461">B</text><text
     fill="#ff0000"
     font-family="Calibri, Calibri_MSFontService, sans-serif"
     font-weight="700"
     font-size="110px"
     id="text9"
     x="3476.75"
     y="516">C</text><text
     fill="#ff0000"
     font-family="Calibri, Calibri_MSFontService, sans-serif"
     font-weight="700"
     font-size="110px"
     id="text10"
     x="3064.25"
     y="1066">X</text><text
     fill="#ff0000"
     font-family="Calibri, Calibri_MSFontService, sans-serif"
     font-weight="700"
     font-size="110px"
     id="text11"
     x="1716.75"
     y="2221">O</text><text
     font-family="Calibri, Calibri_MSFontService, sans-serif"
     font-weight="700"
     font-size="110px"
     id="text12"
     x="1359.25"
     y="1368">R</text><text
     font-family="Calibri, Calibri_MSFontService, sans-serif"
     font-weight="700"
     font-size="110px"
     id="text13"
     x="1716.75"
     y="1203">R</text><text
     font-family="Calibri, Calibri_MSFontService, sans-serif"
     font-weight="700"
     font-size="110px"
     id="text14"
     x="2404.25"
     y="1451">R</text><text
     font-family="Calibri, Calibri_MSFontService, sans-serif"
     font-weight="700"
     font-size="110px"
     id="radius"
     x="2404.4268"
     y="1864.1686"
     style="-inkscape-font-specification:'Calibri, Calibri_MSFontService, sans-serif, Bold';font-family:Calibri, Calibri_MSFontService, sans-serif;font-weight:bold;font-style:normal;font-stretch:normal;font-variant:normal;font-size:110px;font-variant-ligatures:normal;font-variant-caps:normal;font-variant-numeric:normal;font-variant-east-asian:normal"
     inkscape:label="radius"><tspan
       sodipodi:role="line"
       id="tspan13">R = 6,378 km</tspan></text><text
     font-family="Calibri, Calibri_MSFontService, sans-serif"
     font-weight="700"
     font-size="110px"
     id="text15"
     x="2514.25"
     y="469.33334">d2</text><text
     font-family="Calibri, Calibri_MSFontService, sans-serif"
     font-weight="700"
     font-size="110px"
     id="text16"
     x="1261.75"
     y="469.33334">d1</text><path
     d="m 1139,399 c 0,-64.562 36.29,-116.9 81.05,-116.9 h 1006.9 c 44.76,0 81.05,-52.338 81.05,-116.9 0,64.562 36.29,116.9 81.05,116.9 h 1006.9 c 44.76,0 81.05,52.338 81.05,116.9"
     stroke="#00b050"
     stroke-width="10.3125"
     stroke-miterlimit="8"
     fill="none"
     fill-rule="evenodd"
     id="path16" /><text
     fill="#ff0000"
     font-family="Calibri, Calibri_MSFontService, sans-serif"
     font-weight="700"
     font-size="110px"
     id="text17"
     x="369.246"
     y="1891">Warning</text><text
     fill="#ff0000"
     font-family="Calibri, Calibri_MSFontService, sans-serif"
     font-weight="700"
     font-size="110px"
     id="text18"
     x="797.67548"
     y="1891">:</text><text
     fill="#ff0000"
     font-family="Calibri, Calibri_MSFontService, sans-serif"
     font-weight="700"
     font-size="110px"
     id="text19"
     x="369.246"
     y="2023">Not </text><text
     fill="#ff0000"
     font-family="Calibri, Calibri_MSFontService, sans-serif"
     font-weight="700"
     font-size="110px"
     id="text20"
     x="563.46503"
     y="2023">to</text><text
     fill="#ff0000"
     font-family="Calibri, Calibri_MSFontService, sans-serif"
     font-weight="700"
     font-size="110px"
     id="text21"
     x="684.41998"
     y="2023">Scale</text><text
     fill="#ff0000"
     font-family="Calibri, Calibri_MSFontService, sans-serif"
     font-weight="700"
     font-size="110px"
     id="text22"
     x="964.66052"
     y="2021.5288">!</text><path
     d="m 1276.7,776.101 25.61,-9.161 25.75,-8.695 25.84,-8.214 25.92,-7.734 25.99,-7.255 26.06,-6.777 26.12,-6.302 26.17,-5.826 26.23,-5.353 26.27,-4.88 26.31,-4.41 26.34,-3.939 26.37,-3.471 26.39,-3.003 26.4,-2.537 26.41,-2.073 26.41,-1.608 26.41,-1.147 26.4,-0.685 26.38,-0.226 26.36,0.233 26.33,0.69 26.3,1.147 26.26,1.601 26.21,2.054 26.17,2.507 26.1,2.958 26.04,3.407 25.97,3.856 25.9,4.303 25.81,4.749 25.73,5.194 25.63,5.637 25.53,6.079 25.43,6.52 25.32,6.96 25.2,7.398 25.07,7.836 24.95,8.271 24.81,8.705 24.67,9.139 24.52,9.571 24.37,10.002 24.21,10.432 24.05,10.859 23.87,11.287 23.7,11.713 23.51,12.137 23.32,12.56 23.13,12.982 22.93,13.403 22.72,13.823 22.51,14.24 22.29,14.658 22.06,15.073 21.83,15.488 21.6,15.9 21.35,16.313 21.1,16.72 20.85,17.14 20.59,17.54 20.33,17.95 5.79,5.37 -7.01,7.57 -5.75,-5.33 0.1,0.08 -20.26,-17.88 0.07,0.06 -20.51,-17.48 0.07,0.05 -20.78,-17.07 0.07,0.06 -21.03,-16.67 0.07,0.06 -21.28,-16.26 0.08,0.055 -21.53,-15.847 0.08,0.053 -21.76,-15.435 0.07,0.052 -21.98,-15.022 0.07,0.051 -22.21,-14.608 0.08,0.05 -22.44,-14.192 0.08,0.047 -22.64,-13.775 0.08,0.046 -22.85,-13.357 0.08,0.045 -23.05,-12.938 0.07,0.043 -23.24,-12.517 0.08,0.042 -23.43,-12.096 0.08,0.041 -23.62,-11.673 0.08,0.039 -23.79,-11.248 0.08,0.037 -23.96,-10.823 0.08,0.037 -24.13,-10.396 0.09,0.034 -24.29,-9.967 0.08,0.033 -24.44,-9.539 0.09,0.032 -24.59,-9.108 0.09,0.03 -24.73,-8.676 0.08,0.029 -24.86,-8.243 0.09,0.027 -24.99,-7.808 0.08,0.026 -25.11,-7.373 0.08,0.024 -25.23,-6.936 0.09,0.023 -25.34,-6.498 0.08,0.021 -25.44,-6.059 0.08,0.02 -25.54,-5.618 0.08,0.019 -25.64,-5.176 0.09,0.016 -25.72,-4.732 0.08,0.015 -25.8,-4.289 0.08,0.014 -25.88,-3.843 0.09,0.013 -25.95,-3.396 0.09,0.011 -26.02,-2.948 0.09,0.009 -26.08,-2.498 0.09,0.008 -26.12,-2.048 0.09,0.006 -26.17,-1.595 0.09,0.005 -26.21,-1.143 0.09,0.003 -26.25,-0.688 0.09,0.002 -26.27,-0.232 h 0.09 l -26.29,0.225 0.09,-0.002 -26.31,0.683 0.09,-0.003 -26.32,1.143 0.09,-0.005 -26.32,1.603 0.09,-0.006 -26.32,2.065 0.09,-0.008 -26.31,2.529 0.09,-0.01 -26.3,2.994 0.09,-0.011 -26.28,3.458 0.09,-0.012 -26.25,3.926 0.09,-0.014 -26.22,4.394 0.09,-0.016 -26.18,4.864 0.09,-0.018 -26.14,5.335 0.09,-0.019 -26.09,5.807 0.09,-0.021 -26.03,6.28 0.09,-0.022 -25.97,6.754 0.09,-0.024 -25.91,7.231 0.09,-0.026 -25.83,7.708 0.09,-0.027 -25.75,8.186 0.09,-0.029 -25.67,8.665 0.09,-0.03 -25.57,9.146 z m 1554.51,282.529 20.12,54.02 -55.29,-16.32 z"
     fill="#00b050"
     id="path22" /><text
     font-family="Calibri, Calibri_MSFontService, sans-serif"
     font-weight="700"
     font-size="110px"
     id="text23"
     x="2252.5598"
     y="144.13994"
     style="-inkscape-font-specification:'Calibri, Calibri_MSFontService, sans-serif, Bold';font-family:Calibri, Calibri_MSFontService, sans-serif;font-weight:bold;font-style:normal;font-stretch:normal;font-variant:normal;font-size:110px;font-variant-ligatures:normal;font-variant-caps:normal;font-variant-numeric:normal;font-variant-east-asian:normal"><tspan
       sodipodi:role="line"
       id="tspan26">d0</tspan></text><rect
     x="1898"
     y="633"
     width="165"
     height="133"
     fill="#e2e2e2"
     id="rect23" /><text
     font-family="Calibri, Calibri_MSFontService, sans-serif"
     font-weight="700"
     font-size="110px"
     id="text24"
     x="1929.01"
     y="736">L0</text><text
     font-family="Calibri, Calibri_MSFontService, sans-serif"
     font-weight="700"
     font-size="110px"
     id="text25"
     x="1491.2885"
     y="805.04779">L1</text><text
     font-family="Calibri, Calibri_MSFontService, sans-serif"
     font-weight="700"
     font-size="110px"
     id="text25-1"
     x="925.26923"
     y="581.46735"
     style="font-style:normal;font-variant:normal;font-weight:bold;font-stretch:normal;font-size:69.3333px;font-family:Arial;-inkscape-font-specification:'Arial, Bold';font-variant-ligatures:normal;font-variant-caps:normal;font-variant-numeric:normal;font-variant-east-asian:normal">h1</text><text
     font-family="Calibri, Calibri_MSFontService, sans-serif"
     font-weight="700"
     font-size="110px"
     id="text25-1-5"
     x="3282.9802"
     y="804.92535"
     style="font-style:normal;font-variant:normal;font-weight:bold;font-stretch:normal;font-size:69.3333px;font-family:Arial;-inkscape-font-specification:'Arial, Bold';font-variant-ligatures:normal;font-variant-caps:normal;font-variant-numeric:normal;font-variant-east-asian:normal">h2</text><text
     font-family="Calibri, Calibri_MSFontService, sans-serif"
     font-weight="700"
     font-size="110px"
     id="text26"
     x="2365"
     y="763">L2</text><text
     xml:space="preserve"
     id="text1"
     style="text-align:start;writing-mode:lr-tb;direction:ltr;white-space:pre;shape-inside:url(#rect2);display:inline;fill:#000000" /><text
     xml:space="preserve"
     style="font-style:normal;font-variant:normal;font-weight:bold;font-stretch:normal;font-size:69.3333px;font-family:Calibri;-inkscape-font-specification:'Calibri, Bold';font-variant-ligatures:normal;font-variant-caps:normal;font-variant-numeric:normal;font-variant-east-asian:normal;text-align:start;writing-mode:lr-tb;direction:ltr;text-anchor:start;fill:#552200;stroke-width:10.2739"
     x="2583.502"
     y="133.85031"
     id="LoS_Distance_d0"
     transform="scale(0.93751526,1.0666493)"
     inkscape:label="LoS_Distance_d0"><tspan
       sodipodi:role="line"
       id="tspan12">LoS_Distance_d0</tspan></text><text
     xml:space="preserve"
     style="font-style:normal;font-variant:normal;font-weight:bold;font-stretch:normal;font-size:69.3333px;font-family:Calibri;-inkscape-font-specification:'Calibri, Bold';font-variant-ligatures:normal;font-variant-caps:normal;font-variant-numeric:normal;font-variant-east-asian:normal;text-align:start;writing-mode:lr-tb;direction:ltr;text-anchor:start;fill:#552200;stroke-width:10.2739"
     x="3497.5103"
     y="842.65869"
     id="h2"
     transform="scale(0.93751526,1.0666493)"
     inkscape:label="h2"><tspan
       sodipodi:role="line"
       id="tspan8"
       x="3497.5103"
       y="842.65869">h2</tspan></text><text
     xml:space="preserve"
     style="font-style:normal;font-variant:normal;font-weight:bold;font-stretch:normal;font-size:69.3333px;font-family:Calibri;-inkscape-font-specification:'Calibri, Bold';font-variant-ligatures:normal;font-variant-caps:normal;font-variant-numeric:normal;font-variant-east-asian:normal;text-align:start;writing-mode:lr-tb;direction:ltr;text-anchor:start;fill:#552200;stroke-width:10.2739"
     x="2071.1123"
     y="793.2829"
     id="L0"
     transform="scale(0.93751526,1.0666493)"
     inkscape:label="L0"><tspan
       sodipodi:role="line"
       id="tspan14">L0</tspan></text><text
     xml:space="preserve"
     style="font-style:normal;font-variant:normal;font-weight:bold;font-stretch:normal;font-size:69.3333px;font-family:Calibri;-inkscape-font-specification:'Calibri, Bold';font-variant-ligatures:normal;font-variant-caps:normal;font-variant-numeric:normal;font-variant-east-asian:normal;text-align:start;writing-mode:lr-tb;direction:ltr;text-anchor:start;fill:#552200;stroke-width:10.2739"
     x="2888.1658"
     y="427.65195"
     id="d2"
     transform="scale(0.93751526,1.0666493)"
     inkscape:label="d2"><tspan
       sodipodi:role="line"
       id="tspan10"
       x="2888.1658"
       y="427.65195">d2</tspan></text><text
     xml:space="preserve"
     style="font-style:normal;font-variant:normal;font-weight:bold;font-stretch:normal;font-size:69.3333px;font-family:Calibri;-inkscape-font-specification:'Calibri, Bold';font-variant-ligatures:normal;font-variant-caps:normal;font-variant-numeric:normal;font-variant-east-asian:normal;text-align:start;writing-mode:lr-tb;direction:ltr;text-anchor:start;fill:#552200;stroke-width:10.2739"
     x="1515.7094"
     y="434.52707"
     id="d1"
     transform="scale(0.93751526,1.0666493)"
     inkscape:label="d1"><tspan
       sodipodi:role="line"
       id="tspan11">d1</tspan></text><text
     xml:space="preserve"
     style="font-style:normal;font-variant:normal;font-weight:bold;font-stretch:normal;font-size:69.3333px;font-family:Calibri;-inkscape-font-specification:'Calibri, Bold';font-variant-ligatures:normal;font-variant-caps:normal;font-variant-numeric:normal;font-variant-east-asian:normal;text-align:start;writing-mode:lr-tb;direction:ltr;text-anchor:start;fill:#552200;stroke-width:10.2739"
     x="990.41882"
     y="630.78021"
     id="h1"
     transform="scale(0.93751526,1.0666493)"
     inkscape:label="h1"><tspan
       sodipodi:role="line"
       id="tspan9"
       x="990.41882"
       y="630.78021">h1</tspan></text><text
     xml:space="preserve"
     style="font-style:normal;font-variant:normal;font-weight:bold;font-stretch:normal;font-size:69.3333px;font-family:Arial;-inkscape-font-specification:'Arial, Bold';font-variant-ligatures:normal;font-variant-caps:normal;font-variant-numeric:normal;font-variant-east-asian:normal;text-align:start;writing-mode:lr-tb;direction:ltr;text-anchor:start;display:none;fill:#552200;stroke-width:10.2739"
     x="3359.7349"
     y="834.68982"
     id="h2_"
     transform="scale(0.93751526,1.0666493)"
     inkscape:label="h2?"><tspan
       sodipodi:role="line"
       id="tspan7-7"
       x="3359.7349"
       y="834.68982">Distance_d0</tspan></text><text
     xml:space="preserve"
     id="text3"
     style="text-align:start;writing-mode:lr-tb;direction:ltr;white-space:pre;shape-inside:url(#rect3);display:inline;fill:#000000" /><text
     xml:space="preserve"
     style="font-style:normal;font-variant:normal;font-weight:bold;font-stretch:normal;font-size:75.99996948px;font-family:Calibri;-inkscape-font-specification:'Calibri, Bold';font-variant-ligatures:normal;font-variant-caps:normal;font-variant-numeric:normal;font-variant-east-asian:normal;text-align:start;writing-mode:lr-tb;direction:ltr;text-anchor:start;fill:#552200;stroke-width:10.2739"
     x="64.065163"
     y="139.81366"
     id="FromTo"
     transform="scale(0.93751526,1.0666493)"
     inkscape:label="FromTo"><tspan
       sodipodi:role="line"
       id="tspan3"
       x="64.065163"
       y="139.81366"
       style="font-style:normal;font-variant:normal;font-weight:bold;font-stretch:normal;font-size:75.99996948px;font-family:Calibri;-inkscape-font-specification:'Calibri, Bold';font-variant-ligatures:normal;font-variant-caps:normal;font-variant-numeric:normal;font-variant-east-asian:normal;fill:#552200;stroke-width:10.2739">FromTo</tspan></text></svg>
